<svg xmlns="http://www.w3.org/2000/svg" viewBox="0 0 80 80" id="lock"><path d="M40.02 5C29.687 5 21.28 13.406 21.28 23.738V35H17c-1.654 0-3 1.346-3 3v34c0 1.654 1.346 3 3 3h46c1.654 0 3-1.346 3-3V38c0-1.654-1.346-3-3-3h-4.242V23.738C58.758 13.406 50.352 5 40.02 5zM23.28 23.738C23.281 14.508 30.79 7 40.02 7s16.738 7.509 16.738 16.738V35h-5.56V24.263c0-6.163-5.015-11.178-11.178-11.178-6.165 0-11.18 5.015-11.18 11.178V35h-5.559V23.738zM49.198 35H30.84V24.263c0-5.06 4.117-9.178 9.179-9.178s9.178 4.117 9.178 9.178V35zM64 38v34c0 .552-.449 1-1 1H17c-.551 0-1-.448-1-1V38c0-.552.449-1 1-1h46c.551 0 1 .448 1 1z"></path><path d="M36.5 56.697V62.5c0 .934.364 1.812 1.026 2.474A3.474 3.474 0 0 0 40 66c1.93 0 3.5-1.57 3.5-3.5v-5.803a6.863 6.863 0 0 0 3.333-5.864C46.833 47.065 43.768 44 40 44s-6.833 3.065-6.833 6.833a6.863 6.863 0 0 0 3.333 5.864zM40 46a4.839 4.839 0 0 1 4.833 4.833 4.853 4.853 0 0 1-2.761 4.363l-.572.27V62.5c0 .827-.673 1.5-1.5 1.5-.4 0-.775-.156-1.06-.44s-.44-.66-.44-1.06v-7.033l-.572-.27a4.853 4.853 0 0 1-2.761-4.364A4.839 4.839 0 0 1 40 46z"></path></svg>