<svg width="24" height="24" viewBox="0 0 24 24" fill="none" xmlns="http://www.w3.org/2000/svg">
<path fill-rule="evenodd" clip-rule="evenodd" d="M10.5408 4.25C8.7398 4.25 7.01252 4.96546 5.73899 6.23899C4.46546 7.51253 3.75 9.23981 3.75 11.0409C3.75 13.5175 5.09825 15.7977 7.26829 16.9911L6.90686 17.6483L7.26829 16.9911L12.25 19.731V17.5126C12.25 17.0912 12.5916 16.7495 13.0131 16.7495H14.0364C15.6843 16.7495 17.2648 16.0949 18.4301 14.9296C19.5954 13.7643 20.25 12.1839 20.25 10.5359V10.4636C20.25 7.03194 17.4681 4.25001 14.0364 4.25H10.5408ZM4.67833 5.17833C6.23316 3.6235 8.34198 2.75 10.5409 2.75H14.0364C18.2965 2.75001 21.75 6.20351 21.75 10.4636V10.5359C21.75 12.5817 20.9373 14.5437 19.4907 15.9903C18.0441 17.4369 16.0822 18.2495 14.0364 18.2495H13.75V19.775C13.75 20.2961 13.4748 20.7785 13.0262 21.0438C12.5776 21.309 12.0223 21.3177 11.5657 21.0666L11.5657 21.0665L6.54543 18.3055C3.89605 16.8484 2.25 14.0645 2.25 11.0409C2.24999 8.84199 3.12349 6.73317 4.67833 5.17833ZM8.25 12.5C8.25 12.0858 8.58579 11.75 9 11.75H11.4C11.8142 11.75 12.15 12.0858 12.15 12.5C12.15 12.9142 11.8142 13.25 11.4 13.25H9C8.58579 13.25 8.25 12.9142 8.25 12.5ZM9 8.75C8.58579 8.75 8.25 9.08579 8.25 9.5C8.25 9.91421 8.58579 10.25 9 10.25H15C15.4142 10.25 15.75 9.91421 15.75 9.5C15.75 9.08579 15.4142 8.75 15 8.75H9Z" fill="#9A9A9A"/>
</svg>
